<?xml version="1.0" standalone="no"?>
<!DOCTYPE svg PUBLIC "-//W3C//DTD SVG 20010904//EN"
 "http://www.w3.org/TR/2001/REC-SVG-20010904/DTD/svg10.dtd">
<svg version="1.0" xmlns="http://www.w3.org/2000/svg"
 width="500.000000pt" height="500.000000pt" viewBox="0 0 500.000000 500.000000"
 preserveAspectRatio="xMidYMid meet">

<g transform="translate(0.000000,500.000000) scale(0.100000,-0.100000)"
fill="#000000" stroke="none">
<path d="M0 2500 l0 -2500 2500 0 2500 0 0 2500 0 2500 -2500 0 -2500 0 0
-2500z m2851 571 c179 -311 325 -567 323 -569 -1 -2 -32 13 -68 34 l-65 38
-268 467 -268 468 -58 -6 -57 -6 52 92 c51 88 53 90 68 69 8 -12 162 -276 341
-587z m-364 215 c-3 -8 -82 -147 -175 -309 -94 -163 -168 -298 -164 -301 3 -3
53 -6 112 -6 l106 0 65 114 c35 63 67 112 71 110 3 -2 23 -35 44 -72 20 -37
43 -76 50 -87 12 -18 6 -33 -49 -130 l-63 -110 -336 -3 -337 -2 186 322 c102
178 206 360 232 405 l46 83 109 0 c88 0 107 -3 103 -14z"/>
</g>
</svg>
